<svg width="44" height="44" viewBox="0 0 44 44" fill="none" xmlns="http://www.w3.org/2000/svg">
    <path d="M22.0022 0.399963C16.1359 0.399963 15.3997 0.425614 13.0957 0.530465C10.7962 0.635766 9.22654 0.99982 7.85312 1.53398C6.43246 2.08568 5.22735 2.82369 4.02673 4.02475C2.82522 5.22536 2.08721 6.43048 1.53371 7.85069C0.998202 9.22455 0.633699 10.7946 0.530198 13.0932C0.427147 15.3973 0.400146 16.1339 0.400146 22.0002C0.400146 27.8664 0.426247 28.6004 0.530648 30.9044C0.636399 33.204 1.00045 34.7736 1.53416 36.147C2.08631 37.5676 2.82432 38.7728 4.02538 39.9734C5.22555 41.1749 6.43066 41.9147 7.85042 42.4664C9.22474 43.0006 10.7948 43.3646 13.0939 43.4699C15.3979 43.5748 16.1337 43.6004 21.9995 43.6004C27.8662 43.6004 28.6001 43.5748 30.9042 43.4699C33.2037 43.3646 34.7751 43.0006 36.1494 42.4664C37.5696 41.9147 38.7729 41.1749 39.9731 39.9734C41.1746 38.7728 41.9126 37.5676 42.4661 36.1474C42.9971 34.7736 43.3616 33.2035 43.4696 30.9049C43.5731 28.6009 43.6001 27.8664 43.6001 22.0002C43.6001 16.1339 43.5731 15.3977 43.4696 13.0937C43.3616 10.7942 42.9971 9.22455 42.4661 7.85114C41.9126 6.43048 41.1746 5.22536 39.9731 4.02475C38.7716 2.82324 37.5701 2.08523 36.1481 1.53398C34.7711 0.99982 33.2005 0.635766 30.901 0.530465C28.597 0.425614 27.8635 0.399963 21.9954 0.399963H22.0022ZM20.0645 4.2925C20.6396 4.2916 21.2813 4.2925 22.0022 4.2925C27.7694 4.2925 28.453 4.3132 30.7305 4.41671C32.8365 4.51301 33.9795 4.86491 34.7409 5.16056C35.7489 5.55207 36.4676 6.02007 37.2231 6.77608C37.9791 7.53209 38.4471 8.25209 38.8395 9.26011C39.1352 10.0206 39.4876 11.1636 39.5834 13.2696C39.6869 15.5467 39.7094 16.2307 39.7094 21.9952C39.7094 27.7598 39.6869 28.4438 39.5834 30.7208C39.4871 32.8268 39.1352 33.9699 38.8395 34.7304C38.448 35.7384 37.9791 36.4561 37.2231 37.2117C36.4671 37.9677 35.7494 38.4357 34.7409 38.8272C33.9804 39.1242 32.8365 39.4752 30.7305 39.5715C28.4534 39.675 27.7694 39.6975 22.0022 39.6975C16.2345 39.6975 15.5509 39.675 13.2739 39.5715C11.1679 39.4743 10.0248 39.1224 9.26299 38.8268C8.25498 38.4353 7.53497 37.9673 6.77896 37.2112C6.02295 36.4552 5.55495 35.737 5.16255 34.7286C4.86689 33.9681 4.51454 32.8251 4.41869 30.719C4.31519 28.442 4.29449 27.758 4.29449 21.9898C4.29449 16.2217 4.31519 15.5413 4.41869 13.2642C4.51499 11.1582 4.86689 10.0152 5.16255 9.25381C5.55405 8.24579 6.02295 7.52579 6.77896 6.76978C7.53497 6.01377 8.25498 5.54577 9.26299 5.15336C10.0244 4.85636 11.1679 4.50536 13.2739 4.40861C15.2665 4.3186 16.0387 4.2916 20.0645 4.2871V4.2925ZM33.5322 7.87904C32.1012 7.87904 30.9402 9.0387 30.9402 10.4702C30.9402 11.9012 32.1012 13.0622 33.5322 13.0622C34.9632 13.0622 36.1242 11.9012 36.1242 10.4702C36.1242 9.03915 34.9632 7.87814 33.5322 7.87814V7.87904ZM22.0022 10.9076C15.8763 10.9076 10.9096 15.8743 10.9096 22.0002C10.9096 28.1261 15.8763 33.0905 22.0022 33.0905C28.1281 33.0905 33.093 28.1261 33.093 22.0002C33.093 15.8743 28.1276 10.9076 22.0017 10.9076H22.0022ZM22.0022 14.8001C25.9784 14.8001 29.2022 18.0235 29.2022 22.0002C29.2022 25.9764 25.9784 29.2003 22.0022 29.2003C18.0255 29.2003 14.8021 25.9764 14.8021 22.0002C14.8021 18.0235 18.0255 14.8001 22.0022 14.8001Z" fill="#D5DEE4"/>
</svg>
