<svg width="44" height="44" viewBox="0 0 44 44" fill="none" xmlns="http://www.w3.org/2000/svg">
<path d="M21.5999 6.10352e-05C9.67067 6.10352e-05 0 9.67073 0 21.6C0 30.7508 5.69337 38.5735 13.7284 41.7207C13.5396 40.0117 13.3689 37.3835 13.8032 35.5178C14.1958 33.832 16.3361 24.7812 16.3361 24.7812C16.3361 24.7812 15.69 23.4873 15.69 21.5743C15.69 18.5708 17.4309 16.3285 19.5984 16.3285C21.4413 16.3285 22.3313 17.7121 22.3313 19.3711C22.3313 21.2244 21.1514 23.9952 20.5425 26.563C20.0336 28.7128 21.6206 30.4661 23.7411 30.4661C27.5801 30.4661 30.5312 26.4181 30.5312 20.575C30.5312 15.4032 26.815 11.7873 21.5087 11.7873C15.3628 11.7873 11.7554 16.3971 11.7554 21.161C11.7554 23.0175 12.4705 25.0082 13.3629 26.0904C13.5394 26.3043 13.5653 26.4916 13.5127 26.7099C13.3487 27.3921 12.9843 28.8593 12.9128 29.1596C12.8186 29.5549 12.5998 29.6389 12.1904 29.4483C9.49272 28.1926 7.80605 24.2484 7.80605 21.0805C7.80605 14.2669 12.7566 8.00937 22.078 8.00937C29.571 8.00937 35.394 13.3488 35.394 20.4845C35.394 27.9286 30.7003 33.9196 24.1855 33.9196C21.9967 33.9196 19.9391 32.7826 19.2347 31.4394C19.2347 31.4394 18.1517 35.5635 17.8891 36.5741C17.4015 38.4502 16.085 40.802 15.2045 42.2367C17.2255 42.8624 19.3732 43.1999 21.5999 43.1999C33.5293 43.1999 43.2 33.5292 43.2 21.6C43.2 9.67073 33.5293 6.10352e-05 21.5999 6.10352e-05Z" fill="white"/>
</svg>
