<svg width="44" height="44" viewBox="0 0 44 44" fill="none" xmlns="http://www.w3.org/2000/svg">
<path d="M16.6512 21.6C15.4139 21.6 14.4087 22.6052 14.4087 23.8424C14.4087 25.0797 15.4139 26.1107 16.6512 26.0849C17.8884 26.0849 18.8937 25.0797 18.8937 23.8424C18.8937 22.6052 17.8884 21.6 16.6512 21.6Z" fill="white"/>
<path d="M21.6259 31.4463C22.4765 31.4463 25.4149 31.3432 26.9614 29.7966C27.1677 29.5646 27.1677 29.2038 26.9614 28.9718C26.7295 28.7398 26.3686 28.7398 26.1366 28.9718C25.1829 29.9513 23.0951 30.2863 21.6259 30.2863C20.1567 30.2863 18.0946 29.9513 17.1151 28.9718C16.8832 28.7398 16.5223 28.7398 16.2903 28.9718C16.0583 29.2038 16.0583 29.5646 16.2903 29.7966C17.8111 31.3174 20.7495 31.4463 21.6259 31.4463Z" fill="white"/>
<path d="M24.3066 23.8682C24.3066 25.1054 25.3118 26.1107 26.549 26.1107C27.7863 26.1107 28.7915 25.0797 28.7915 23.8682C28.7915 22.631 27.7863 21.6257 26.549 21.6257C25.3118 21.6257 24.3066 22.631 24.3066 23.8682Z" fill="white"/>
<path d="M43.2 21.6C43.2 33.5294 33.5294 43.2 21.6 43.2C9.67065 43.2 0 33.5294 0 21.6C0 9.67065 9.67065 0 21.6 0C33.5294 0 43.2 9.67065 43.2 21.6ZM32.8641 18.4553C32.0135 18.4553 31.2402 18.7904 30.6731 19.3317C28.508 17.7852 25.5438 16.7799 22.2445 16.651L23.6879 9.89781L28.3791 10.9031C28.4307 12.0887 29.4101 13.0424 30.6216 13.0424C31.8588 13.0424 32.8641 12.0372 32.8641 10.8C32.8641 9.56272 31.8588 8.55747 30.6216 8.55747C29.7452 8.55747 28.9719 9.07298 28.6111 9.82048L23.3786 8.71213C23.224 8.68635 23.0693 8.71212 22.9662 8.78945C22.8373 8.86678 22.76 8.99566 22.7342 9.15031L21.1361 16.6768C17.7853 16.7799 14.7696 17.7852 12.5786 19.3575C12.0116 18.8162 11.2383 18.4811 10.3877 18.4811C8.63495 18.4811 7.24307 19.8988 7.24307 21.6257C7.24307 22.9145 8.01634 23.9971 9.09892 24.4868C9.04736 24.7961 9.02159 25.1054 9.02159 25.4405C9.02159 30.2863 14.6665 34.23 21.6259 34.23C28.5853 34.23 34.2302 30.3121 34.2302 25.4405C34.2302 25.1312 34.2044 24.7961 34.1529 24.4868C35.2354 23.9971 36.0087 22.8887 36.0087 21.6C36.0087 19.8472 34.591 18.4553 32.8641 18.4553Z" fill="white"/>
</svg>
