<svg width="44" height="44" viewBox="0 0 44 44" fill="none" xmlns="http://www.w3.org/2000/svg">
<path d="M24.3 -2.99811e-06L29.6475 -3.05176e-05C30.0336 1.9305 31.1056 4.36602 32.9805 6.78222C34.8177 9.14973 37.2522 10.8 40.5 10.8V16.2C35.7658 16.2 32.2084 14.0034 29.7 11.2627V29.7C29.7 37.1558 23.6558 43.2 16.2 43.2C8.74411 43.2 2.69995 37.1558 2.69995 29.7C2.69995 22.2442 8.74411 16.2 16.2 16.2V21.6C11.7264 21.6 8.09995 25.2265 8.09995 29.7C8.09995 34.1735 11.7264 37.8 16.2 37.8C20.6735 37.8 24.3 34.1735 24.3 29.7V-2.99811e-06Z" fill="white"/>
</svg>
